<?xml version="1.0" encoding="UTF-8" standalone="no"?>
<svg
   version="1.1"
   viewBox="-10 0 500 1000"
   id="svg2"
   inkscape:version="1.0.1 (3bc2e813f5, 2020-09-07)"
   sodipodi:docname="23_23_23.svg"
   width="500"
   height="1000"
   xmlns:inkscape="http://www.inkscape.org/namespaces/inkscape"
   xmlns:sodipodi="http://sodipodi.sourceforge.net/DTD/sodipodi-0.dtd"
   xmlns="http://www.w3.org/2000/svg"
   xmlns:svg="http://www.w3.org/2000/svg"
   xmlns:rdf="http://www.w3.org/1999/02/22-rdf-syntax-ns#"
   xmlns:cc="http://creativecommons.org/ns#"
   xmlns:dc="http://purl.org/dc/elements/1.1/">
  <metadata
     id="metadata12">
    <rdf:RDF>
      <cc:Work
         rdf:about="">
        <dc:format>image/svg+xml</dc:format>
        <dc:type
           rdf:resource="http://purl.org/dc/dcmitype/StillImage" />
        <dc:title />
      </cc:Work>
    </rdf:RDF>
  </metadata>
  <defs
     id="defs10" />
  <sodipodi:namedview
     pagecolor="#ffffff"
     bordercolor="#666666"
     borderopacity="1"
     objecttolerance="10"
     gridtolerance="10"
     guidetolerance="10"
     inkscape:pageopacity="0"
     inkscape:pageshadow="2"
     inkscape:window-width="2435"
     inkscape:window-height="1368"
     id="namedview8"
     showgrid="false"
     showguides="true"
     inkscape:guide-bbox="true"
     inkscape:object-paths="false"
     inkscape:object-nodes="true"
     inkscape:snap-smooth-nodes="true"
     inkscape:zoom="0.23046875"
     inkscape:cx="-234.6981"
     inkscape:cy="715.83552"
     inkscape:window-x="7"
     inkscape:window-y="2"
     inkscape:window-maximized="0"
     inkscape:current-layer="svg2"
     inkscape:document-rotation="0"
     inkscape:showpageshadow="2"
     inkscape:pagecheckerboard="0"
     inkscape:deskcolor="#d1d1d1">
    <sodipodi:guide
       position="17.355932,536"
       orientation="0,1"
       id="guide4143"
       inkscape:label="Baseline"
       inkscape:color="rgb(0,0,255)"
       inkscape:locked="false" />
    <inkscape:grid
       type="xygrid"
       id="grid4145" />
    <sodipodi:guide
       position="13.016949,1316"
       orientation="0,1"
       id="guide4149"
       inkscape:label="Waistline"
       inkscape:color="rgb(0,0,255)"
       inkscape:locked="false" />
    <sodipodi:guide
       position="8.6779662,-92"
       orientation="0,1"
       id="guide4151"
       inkscape:label="Descender Line"
       inkscape:color="rgb(0,0,255)"
       inkscape:locked="false" />
    <sodipodi:guide
       position="17.355932,1944"
       orientation="0,1"
       id="guide5300"
       inkscape:label="Ascender Line"
       inkscape:color="rgb(0,0,255)"
       inkscape:locked="false" />
    <sodipodi:guide
       position="772.33898,1266.9831"
       orientation="0,1"
       id="guide4145"
       inkscape:locked="false" />
    <sodipodi:guide
       position="746.30509,1136.8136"
       orientation="0,1"
       id="guide4147"
       inkscape:locked="false" />
  </sodipodi:namedview>
  <path
     style="opacity:0.194514;fill:none;fill-rule:evenodd;stroke:#000000;stroke-width:82.0512;stroke-linecap:round;stroke-linejoin:round;stroke-miterlimit:4;stroke-dasharray:none;stroke-opacity:1"
     d="m 694.94121,300.00025 c -117.265,31.42106 -308.20653,127.68346 -308.20653,325.50805 0,115.428 46.46135,174.4915 123.52594,174.4915 77.06458,0 123.52596,-59.0635 123.52596,-174.4915 0,-197.82459 -190.94154,-294.08699 -308.20652,-325.50805"
     id="path887"
     inkscape:connector-curvature="0"
     sodipodi:nodetypes="cszsc" />
  <path
     style="opacity:0.194514;fill:none;fill-rule:evenodd;stroke:#000000;stroke-width:82.0512;stroke-linecap:round;stroke-linejoin:round;stroke-miterlimit:4;stroke-dasharray:none;stroke-opacity:1"
     d="m 1215.9626,300.00025 c -117.265,31.42106 -308.2065,127.68346 -308.2065,325.50805 0,115.428 46.4613,174.4915 123.5259,174.4915 77.0646,0 123.526,-59.0635 123.526,-174.4915 0,-197.82459 -190.9415,-294.08699 -308.2065,-325.50805"
     id="path889"
     inkscape:connector-curvature="0"
     sodipodi:nodetypes="cszsc" />
  <path
     style="opacity:0.194514;fill:none;fill-rule:evenodd;stroke:#000000;stroke-width:82.0512;stroke-linecap:round;stroke-linejoin:round;stroke-miterlimit:4;stroke-dasharray:none;stroke-opacity:1"
     d="m 1736.2359,300.00025 c -117.265,31.42106 -308.2065,127.68346 -308.2065,325.50805 0,115.428 46.4613,174.4915 123.5259,174.4915 77.0646,0 123.526,-59.0635 123.526,-174.4915 0,-197.82459 -190.9416,-294.08699 -308.2065,-325.50805"
     id="path891"
     inkscape:connector-curvature="0"
     sodipodi:nodetypes="cszsc" />
  <g
     id="g4720"
     transform="matrix(1.0663,0,0,-1.0663,68.335679,1499.6841)"
     style="opacity:0.45100008" />
  <g
     transform="matrix(1,0,0,-1,0,1418)"
     id="g4" />
  <path
     style="opacity:1;fill:none;fill-rule:evenodd;stroke:#000000;stroke-width:82.0512;stroke-linecap:round;stroke-linejoin:round;stroke-miterlimit:4;stroke-dasharray:none;stroke-opacity:1"
     d="m 1736.2359,300.00025 c -117.265,31.42106 -308.2065,127.68346 -308.2065,325.50805 0,115.428 46.4613,174.4915 123.5259,174.4915 77.0646,0 123.526,-59.0635 123.526,-174.4915 0,-197.82459 -203.8761,-325.50805 -384.3824,-325.50805 -180.5063,0 -382.9428,127.68346 -382.9428,325.50805 0,115.428 46.4613,174.4915 123.5259,174.4915 77.0646,0 123.526,-59.0635 123.526,-174.4915 0,-197.82459 -203.2332,-325.50805 -383.6371,-325.50805 -180.40399,0 -384.43622,127.68346 -384.43622,325.50805 0,115.428 46.46135,174.4915 123.52594,174.4915 77.06458,0 123.52596,-59.0635 123.52596,-174.4915 0,-197.82459 -190.94154,-294.08699 -308.20652,-325.50805"
     id="path4732-2"
     inkscape:connector-curvature="0"
     sodipodi:nodetypes="cszszszszszsc" />
</svg>
